# xmcd
#
# Track frame offsets: 
#        150
#        13948
#        30649
#        42888
#        56672
#        69605
#        82189
#        98874
#        110551
#        122909
#        135647
#        151109
#
# Disc length: 2161 seconds
#
# Revision: 0
# Processed by: cddbd v1.5.2PL0 Copyright (c) Steve Scherf et al.
# Submitted via: ExactAudioCopyFreeDBPlugin 1.0
#
DISCID=a3086f0c
DTITLE=The Grascals - And Then There's This...
DYEAR=2016
DGENRE=Bluegrass
TTITLE0=I Know Better
TTITLE1=Road of Life
TTITLE2=Sweet Little Mountain Girl
TTITLE3=True Hearts
TTITLE4=Old Friend of Mine
TTITLE5=Warm Wind
TTITLE6=If You Want Me To
TTITLE7=Delta Queen
TTITLE8=I Like Trains
TTITLE9=Autumn Glen
TTITLE10=A Place to Hang My Hat
TTITLE11=Highway of Sorrow
EXTD=
EXTT0=
EXTT1=
EXTT2=
EXTT3=
EXTT4=
EXTT5=
EXTT6=
EXTT7=
EXTT8=
EXTT9=
EXTT10=
EXTT11=
PLAYORDER=
